<?xml version="1.0" encoding="UTF-8"?>
<svg id="Layer_1" data-name="Layer 1" xmlns="http://www.w3.org/2000/svg" viewBox="0 0 512 512">
  <defs>
    <style>
      .cls-1 {
        fill: #231f20;
      }

      .cls-2 {
        fill: #ed1d24;
      }

      .cls-3 {
        fill: #fff;
      }
    </style>
  </defs>
  <rect class="cls-2" width="512" height="512" rx="96" ry="96"/>
  <path class="cls-3" d="M430.103,339c-4.204,0-8.908-.111-14.467-.268-10.553-.285-45.354-6.152-50.157-69.543-4.873-64.312,28.69-75.101,43.342-76.755,13.665-1.544,32.638-2.22,42.029-.07,1.215.227,35.033,7.241,40.44,66.24,5.472,59.745-22.113,73.866-34.23,77.163-9.356,2.54-16.636,3.233-26.957,3.233Z"/>
  <path class="cls-1" d="M430.103,339c-4.204,0-8.908-.111-14.467-.268-10.553-.285-45.354-6.152-50.157-69.543-4.873-64.312,28.69-75.101,43.342-76.755,13.665-1.544,32.638-2.22,42.029-.07,1.215.227,35.033,7.241,40.44,66.24,5.472,59.745-22.113,73.866-34.23,77.163-9.356,2.54-16.636,3.233-26.957,3.233ZM433.749,201.906c-7.629,0-16.334.547-23.707,1.38-14.304,1.614-37.702,12.222-33.695,65.081,4,52.79,29.021,59.157,39.586,59.448,19.735.536,27.055.461,38.272-2.592,9.454-2.569,30.945-14.115,26.218-65.623-4.599-50.238-30.742-56.319-31.853-56.558-3.5-.798-8.826-1.136-14.821-1.136Z"/>
  <path class="cls-3" d="M257.5,445c-128.006,0-198.5-54.635-198.5-153.834,0-105.951,52.144-219.166,198.5-219.166s198.5,113.215,198.5,219.166c0,99.199-70.499,153.834-198.5,153.834Z"/>
  <path class="cls-1" d="M257.5,445c-128.006,0-198.5-54.635-198.5-153.834,0-105.951,52.144-219.166,198.5-219.166s198.5,113.215,198.5,219.166c0,99.199-70.499,153.834-198.5,153.834ZM257.5,82.783c-138.62,0-188.004,107.642-188.004,208.383,0,65.262,32.613,143.051,188.004,143.051s188.004-77.789,188.004-143.051c0-100.741-49.39-208.383-188.004-208.383Z"/>
  <path class="cls-1" d="M380.377,289c-.534,0-1.062-.079-1.585-.238-2.837-.874-4.422-3.813-3.555-6.616.224-.721,5.674-17.783,24.178-20.671,19.142-2.968,30.628,8.692,33.999,15.286,1.35,2.621.287,5.821-2.366,7.149-2.67,1.334-5.898.278-7.23-2.343-.247-.46-6.645-12.098-22.72-9.584-11.75,1.833-15.426,12.829-15.575,13.295-.729,2.264-2.86,3.722-5.146,3.722Z"/>
  <path class="cls-1" d="M306.55,289c-2.173,0-4.224-1.292-5.066-3.412-.302-.723-6.594-14.819-32.483-14.819-20.87,0-32.803,14.331-33.303,14.94-1.888,2.303-5.299,2.694-7.652.833-2.341-1.855-2.73-5.221-.871-7.547.621-.77,15.559-18.995,41.826-18.995,33.877,0,42.29,20.809,42.639,21.694,1.075,2.78-.337,5.887-3.149,6.95-.634.241-1.296.356-1.941.356Z"/>
  <path class="cls-3" d="M84.004,354c-2.18,0-4.54-.046-7.167-.116-9.468-.256-56.764-5.161-57.822-76.419-.913-61.466,37.176-77.244,51.928-78.134,21.256-1.292,30.003,1.542,32.427,2.583,3.47,1.135,24.046,8.948,34.125,38.177,3.632,10.525,5.481,22.713,5.504,36.246.017,14.102-1.866,26.751-5.597,37.572-10.358,30.119-31.48,36.676-32.375,36.944-6.464,2.437-12.183,3.147-21.024,3.147Z"/>
  <path class="cls-1" d="M84.004,354c-2.18,0-4.54-.046-7.167-.116-9.468-.256-56.764-5.161-57.822-76.419-.913-61.466,37.176-77.244,51.928-78.134,21.256-1.292,30.003,1.542,32.427,2.583,3.47,1.135,24.046,8.948,34.125,38.177,3.632,10.525,5.481,22.713,5.504,36.246.017,14.102-1.866,26.751-5.597,37.572-10.358,30.119-31.48,36.676-32.375,36.944-6.464,2.437-12.183,3.147-21.024,3.147ZM81.057,209.914c-2.778,0-5.911.087-9.457.302-11.061.669-42.477,14.435-41.686,67.087.889,59.767,36.368,65.381,47.22,65.678,12.282.332,17.827.012,24.429-2.467,1.012-.326,17.106-5.637,25.54-30.154,3.331-9.675,5.01-21.125,4.999-34.017-.024-12.311-1.668-23.307-4.906-32.691-8.852-25.646-26.533-31.167-27.283-31.388-.267-.075-.564-.186-.825-.308-.215-.093-5.039-2.042-18.03-2.042Z"/>
</svg>