<svg width="20" height="22" viewBox="0 0 20 22" fill="none" xmlns="http://www.w3.org/2000/svg">
<path d="M19.4563 16.9368V21.1119C15.7097 21.0262 12.1693 19.1703 9.94911 16.1173L9.72684 15.812L9.50723 16.1173C7.28441 19.1703 3.74665 21.0262 0 21.1119V16.9368C4.14569 16.7948 7.49598 13.4472 7.63792 9.29883H11.8211C11.963 13.4472 15.3107 16.7948 19.459 16.9368" fill="white"/>
<path d="M12.4402 2.71559C12.4402 4.20996 11.2244 5.43117 9.72463 5.43117C8.2249 5.43117 7.01172 4.20996 7.01172 2.71559C7.01172 1.22121 8.22757 0 9.72463 0C11.2217 0 12.4402 1.22121 12.4402 2.71559Z" fill="white"/>
</svg>
