<?xml version="1.0" encoding="UTF-8"?>
<svg id="_레이어_1" data-name="레이어 1" xmlns="http://www.w3.org/2000/svg" viewBox="0 0 284.376 74.442">
  <defs>
    <style>
      .cls-1 {
        fill: #fff;
      }
    </style>
  </defs>
  <g>
    <path class="cls-1" d="M269.028,0h-22.143c-8.44,0-15.35,6.901-15.35,15.351v8.102c0,8.434,6.909,15.341,15.35,15.341h22.143c8.443,0,15.348-6.907,15.348-15.341v-8.102c0-8.449-6.904-15.351-15.348-15.351ZM270.588,22.821c0,3.922-3.204,7.13-7.125,7.13h-11.009c-3.933,0-7.134-3.208-7.134-7.13v-6.846c0-3.914,3.201-7.131,7.134-7.131h11.009c3.921,0,7.125,3.217,7.125,7.131v6.846Z"/>
    <path class="cls-1" d="M89.488,22.853c0,3.92-3.199,7.131-7.123,7.131h-8.138c-3.921,0-7.123-3.211-7.123-7.131V1.025h-13.784v22.421c0,8.443,6.911,15.348,15.35,15.348h19.26c8.44,0,15.342-6.904,15.342-15.348V1.025h-13.783v21.827Z"/>
    <polygon class="cls-1" points="139.436 27.603 127.966 1.023 109.743 1.023 109.743 37.769 123.214 37.769 123.214 17.164 132.625 37.769 146.256 37.769 155.669 17.164 155.669 37.769 169.136 37.769 169.136 1.023 150.91 1.023 139.436 27.603"/>
    <polygon class="cls-1" points="49.755 1.025 32.909 1.025 13.755 16.704 13.755 1.035 0 1.035 0 37.758 13.755 37.758 13.755 21.365 33.868 37.769 52.763 37.769 28.767 18.203 49.755 1.025"/>
    <polygon class="cls-1" points="212.051 1.025 212.051 14.335 189.655 14.335 189.655 1.025 175.878 1.025 175.878 37.769 189.655 37.769 189.655 24.463 212.051 24.463 212.051 37.769 225.824 37.769 225.824 1.025 212.051 1.025"/>
  </g>
  <g>
    <polygon class="cls-1" points="152.801 54.509 166.357 54.509 166.357 74.442 176.655 74.442 176.655 54.509 190.215 54.509 190.215 46.929 152.801 46.929 152.801 54.509"/>
    <path class="cls-1" d="M245.586,56.259v-.433c0-5.654-3.559-8.898-9.762-8.898h-25.638v27.514h10.299v-9.286h7.01l6.951,9.286h11.45l-7.017-9.596c4.294-.93,6.706-3.942,6.706-8.588ZM232.663,58.635h-12.178v-5.188h12.178c1.436,0,2.598,1.162,2.598,2.593s-1.162,2.595-2.598,2.595Z"/>
    <polygon class="cls-1" points="282.483 53.442 282.483 46.929 249.931 46.929 249.931 74.442 282.483 74.442 282.483 67.929 260.231 67.929 260.231 63.939 281.156 63.939 281.156 57.429 260.231 57.429 260.231 53.442 282.483 53.442"/>
    <rect class="cls-1" x="194.814" y="46.929" width="10.302" height="27.514"/>
  </g>
</svg>