<?xml version="1.0" encoding="UTF-8"?>
<svg id="_레이어_1" data-name="레이어 1" xmlns="http://www.w3.org/2000/svg" viewBox="0 0 355.815 29.286">
  <defs>
    <style>
      .cls-1 {
        fill: #231916;
      }
    </style>
  </defs>
  <g>
    <path class="cls-1" d="M203.104,0h-16.719c-6.37,0-11.588,5.211-11.588,11.586v6.117c0,6.369,5.218,11.583,11.588,11.583h16.719c6.37,0,11.583-5.214,11.583-11.583v-6.117c0-6.376-5.213-11.586-11.583-11.586ZM204.279,17.227c0,2.963-2.416,5.384-5.381,5.384h-8.315c-2.958,0-5.381-2.421-5.381-5.384v-5.167c0-2.96,2.423-5.388,5.381-5.388h8.315c2.965,0,5.381,2.428,5.381,5.388v5.167Z"/>
    <path class="cls-1" d="M67.561,17.247c0,2.963-2.419,5.385-5.38,5.385h-6.143c-2.963,0-5.382-2.422-5.382-5.385V.773h-10.403v16.93c0,6.373,5.218,11.583,11.59,11.583h14.539c6.37,0,11.583-5.21,11.583-11.583V.773h-10.404v16.474Z"/>
    <polygon class="cls-1" points="105.265 20.836 96.609 .769 82.848 .769 82.848 28.513 93.014 28.513 93.014 12.959 100.12 28.513 110.414 28.513 117.52 12.959 117.52 28.513 127.688 28.513 127.688 .769 113.929 .769 105.265 20.836"/>
    <polygon class="cls-1" points="37.559 .773 24.843 .773 10.382 12.611 10.382 .776 0 .776 0 28.506 10.382 28.506 10.382 16.126 25.569 28.513 39.834 28.513 21.72 13.742 37.559 .773"/>
    <polygon class="cls-1" points="160.082 .773 160.082 10.82 143.176 10.82 143.176 .773 132.775 .773 132.775 28.513 143.176 28.513 143.176 18.463 160.082 18.463 160.082 28.513 170.485 28.513 170.485 .773 160.082 .773"/>
  </g>
  <g>
    <polygon class="cls-1" points="225.063 8.419 238.734 8.419 238.734 28.513 249.12 28.513 249.12 8.419 262.782 8.419 262.782 .773 225.063 .773 225.063 8.419"/>
    <path class="cls-1" d="M318.61,10.183v-.435c0-5.702-3.584-8.975-9.845-8.975l-25.842.003v27.737h10.385v-9.362h7.067l7.005,9.362h11.546l-7.076-9.672c4.331-.936,6.759-3.971,6.759-8.658ZM305.584,12.578h-12.276v-5.238h12.276c1.448,0,2.621,1.179,2.621,2.626s-1.173,2.612-2.621,2.612Z"/>
    <polygon class="cls-1" points="355.815 7.339 355.815 .773 322.988 .776 322.988 28.513 355.815 28.513 355.815 21.95 333.377 21.95 333.377 17.932 354.469 17.932 354.469 11.358 333.377 11.358 333.377 7.339 355.815 7.339"/>
    <rect class="cls-1" x="267.431" y=".773" width="10.376" height="27.74"/>
  </g>
</svg>