<?xml version="1.0" encoding="UTF-8"?>
<svg id="Layer_1" data-name="Layer 1" xmlns="http://www.w3.org/2000/svg" viewBox="0 0 200 200">
  <defs>
    <style>
      .cls-1 {
        fill: #ebe8e6;
      }
    </style>
  </defs>
  <rect class="cls-1" width="200" height="200"/>
  <path d="M41.3,110.85h30.28v6.72h-37.91v-39.38h7.63s0,32.66,0,32.66ZM90.29,114.13l5.9,5.9,5.9-5.9-5.9-5.9-5.9,5.9ZM166.36,105.75c0,8.22-6.49,11.83-14.48,11.83h-27.82v-39.38h27.04c5.1,0,13.04,1.63,13.04,10.21,0,2.5-1.71,6.39-4.59,7.56,2.8.97,6.79,3.4,6.79,9.8l.02-.02ZM131.7,93.29h18.84c2.28,0,5.86-.73,5.86-4.31,0-3.05-2.16-4.31-5.8-4.31h-18.9v8.63-.01ZM158.61,105.13c0-4.37-3.06-5.37-6.84-5.37h-20.06v11.35h20.06c3.53,0,6.84-1.61,6.84-5.98Z"/>
</svg>