<?xml version="1.0" encoding="UTF-8"?>
<svg id="Layer_1" data-name="Layer 1" xmlns="http://www.w3.org/2000/svg" viewBox="0 0 505 505">
  <defs>
    <style>
      .cls-1 {
        fill: #fff;
        stroke: #fff;
        stroke-width: 5px;
      }
    </style>
  </defs>
  <path class="cls-1" d="M114.33,502.5h6.88c1.8,0,3.5-.7,4.79-1.97l17.94-17.76,16.83,16.66c2.66,2.61,6.92,2.61,9.57,0l16.83-16.66,16.83,16.65c2.66,2.61,6.92,2.61,9.57,0l16.83-16.65,16.83,16.66c2.66,2.61,6.92,2.61,9.57,0l16.83-16.66,16.83,16.65c2.66,2.61,6.91,2.61,9.57,0l16.83-16.66,16.83,16.65c2.66,2.61,6.91,2.61,9.57,0l16.83-16.66,17.94,17.76c1.27,1.26,2.99,1.97,4.78,1.97h7.88c3.76,0,6.8-3.05,6.8-6.8V9.3c0-3.76-3.05-6.8-6.8-6.8h-7.88c-1.8,0-3.5.7-4.79,1.97l-17.94,17.75-16.83-16.65c-2.66-2.61-6.92-2.61-9.57,0l-16.83,16.65-16.83-16.65c-2.66-2.61-6.92-2.61-9.57,0l-16.83,16.65-16.83-16.65c-2.66-2.61-6.92-2.61-9.57,0l-16.83,16.65-16.83-16.65c-2.66-2.61-6.92-2.61-9.57,0l-16.83,16.65-16.83-16.65c-2.66-2.61-6.92-2.61-9.57,0l-16.83,16.65-17.94-17.76c-1.27-1.26-2.99-1.97-4.79-1.97h-6.88c-3.76,0-6.8,3.05-6.8,6.8v486.39c0,3.76,3.05,6.8,6.8,6.8ZM383.77,10.3h0s0,0,0,0ZM115.72,10.7h4.91l18.51,18.32c2.66,2.61,6.91,2.61,9.57,0l16.83-16.65,16.83,16.65c2.66,2.61,6.92,2.61,9.57,0l16.83-16.65,16.83,16.65c2.66,2.61,6.92,2.61,9.57,0l16.83-16.65,16.83,16.65c2.66,2.61,6.92,2.61,9.57,0l16.83-16.65,16.83,16.65c2.66,2.61,6.92,2.61,9.57,0l16.83-16.65,16.83,16.65c2.66,2.61,6.92,2.61,9.57,0l18.51-18.32h5.91v483.61h-5.91l-18.51-18.32c-2.66-2.61-6.92-2.61-9.57,0l-16.83,16.65-16.83-16.65c-2.66-2.61-6.92-2.61-9.57,0l-16.83,16.65-16.83-16.65c-2.66-2.61-6.92-2.61-9.57,0l-16.83,16.66-16.83-16.66c-2.66-2.61-6.92-2.61-9.57,0l-16.83,16.65-16.83-16.66c-2.66-2.61-6.92-2.61-9.57,0l-16.83,16.66-16.83-16.66c-2.66-2.61-6.92-2.61-9.57,0l-18.51,18.32h-4.91V10.7Z"/>
  <path class="cls-1" d="M308.09,53.85v-4.1h-106.18v8.2h106.18v-4.1ZM182.04,73.35h145.93v8.2h-145.93v-8.2ZM180.17,111.6v-4.1h-37.26v8.2h37.26v-4.1ZM180.17,132.71v-4.1h-37.26v8.2h37.26v-4.1ZM190.11,152.21h-47.19v8.2h47.19v-8.2ZM340.38,156.31v4.1h32.29v-8.2h-32.29v4.1ZM315.54,128.61h57.13v8.2h-57.13v-8.2ZM325.48,107.5h47.19v8.2h-47.19v-8.2ZM209.77,189.67h-66.86v8.19h66.86v-8.19ZM222.19,218.79h-79.27v8.2h79.27v-8.2ZM170.03,252v-4.1h-27.11v8.2h27.11v-4.1ZM199.84,277.02h-56.92v8.2h56.92v-8.2ZM245.37,193.77v4.1h127.3v-8.19h-127.3v4.1ZM265.24,222.89v4.1h107.43v-8.2h-107.43v4.1ZM280.15,252v4.1h92.52v-8.2h-92.52v4.1ZM309.95,277.02h62.72v8.2h-62.72v-8.2ZM190.11,316.35v8.2h118.91v-8.2h-118.91ZM167.65,339.12h163.83v8.2h-163.83v-8.2ZM165.14,380.15v69.21h5.47v-69.21h-5.47ZM180.58,380.15v57.76h8.2v-57.76h-8.2ZM196.61,380.15v57.76h2.73v-57.76h-2.73ZM210.68,380.15v57.76h8.2v-57.76h-8.2ZM226.71,380.15v57.76h2.73v-57.76h-2.73ZM240.78,380.15v57.76h8.2v-57.76h-8.2ZM255.45,380.15v69.21h5.47v-69.21h-5.47ZM266.68,380.15v57.76h8.2v-57.76h-8.2ZM282.72,380.15v57.76h2.73v-57.76h-2.73ZM322.69,380.15v57.76h8.2v-57.76h-8.2ZM337.36,380.15v69.21h5.46v-69.21h-5.46ZM294.69,380.15v57.76h8.19v-57.76h-8.19ZM310.72,380.15v57.76h2.73v-57.76h-2.73Z"/>
</svg>
