<?xml version="1.0" encoding="UTF-8"?>
<svg id="Layer_3" data-name="Layer 3" xmlns="http://www.w3.org/2000/svg" viewBox="0 0 64 64">
  <defs>
    <style>
      .cls-1 {
        fill: none;
        stroke: #000;
        stroke-miterlimit: 10;
        stroke-width: 2px;
      }
    </style>
  </defs>
  <path class="cls-1" d="M53.95,45.09c-2.07-7.54-7.76-11.71-10.11-13.15,8.25-6,8.4-12.91,8.4-13.21,0-.19-.07-.37-.21-.51-.14-.14-.32-.21-.51-.21h-6.91c-.32,0-.59.21-.69.51-2.25,7.28-6.81,9.3-8.67,9.83v-9.62c0-.39-.32-.72-.72-.72h-6.73c-.39,0-.72.32-.72.72v17.37c-2.15-1.05-7.52-4.92-8.13-17.4-.02-.38-.34-.68-.72-.68h-7.51c-.39,0-.72.32-.72.72v2.74c0,13.53,11.01,24.53,24.53,24.53.39,0,.72-.32.72-.72v-8.65c7.54,1.38,9.64,8.53,9.73,8.83.09.31.37.52.69.52h7.57c.22,0,.44-.11.57-.28.14-.18.19-.41.12-.62Z"/>
</svg>