<?xml version="1.0" encoding="UTF-8"?>
<svg id="Layer_3" xmlns="http://www.w3.org/2000/svg" xmlns:xlink="http://www.w3.org/1999/xlink" version="1.1" viewBox="0 0 38 38">
  <!-- Generator: Adobe Illustrator 29.1.0, SVG Export Plug-In . SVG Version: 2.1.0 Build 142)  -->
  <defs>
    <style>
      .st0, .st1 {
        fill: none;
      }

      .st1 {
        stroke: #000;
        stroke-linecap: round;
        stroke-linejoin: round;
        stroke-width: 1.5px;
      }

      .st2 {
        clip-path: url(#clippath);
      }
    </style>
    <clipPath id="clippath">
      <rect class="st0" width="38" height="38"/>
    </clipPath>
  </defs>
  <g class="st2">
    <path class="st1" d="M36.5,26.3h-5.8c-2.5,0-4.5,2-4.5,4.5v5.8M8.9,36.5h17.4c1.9,0,3.7-.7,5-2.1l3.2-3.2c1.3-1.3,2.1-3.1,2.1-5V8.9c0-2-.8-3.9-2.2-5.3-1.4-1.4-3.3-2.2-5.3-2.2H8.9c-2,0-3.9.8-5.3,2.2-1.4,1.4-2.2,3.3-2.2,5.3v20.2c0,2,.8,3.9,2.2,5.3s3.3,2.2,5.3,2.2h0ZM10.2,27.8h8.8M10.2,10.2h17.5M10.2,19h17.5"/>
  </g>
</svg>