<?xml version="1.0" encoding="UTF-8"?>
<svg id="Layer_3" data-name="Layer 3" xmlns="http://www.w3.org/2000/svg" xmlns:xlink="http://www.w3.org/1999/xlink" viewBox="0 0 64 64">
  <defs>
    <style>
      .cls-1, .cls-2 {
        fill: none;
      }

      .cls-1, .cls-3 {
        stroke-width: 0px;
      }

      .cls-2 {
        stroke: #000;
        stroke-linecap: round;
        stroke-linejoin: round;
        stroke-width: 2px;
      }

      .cls-4 {
        clip-path: url(#clippath-1);
      }

      .cls-3 {
        fill: #000;
      }
    </style>
    <clipPath id="clippath-1">
      <rect class="cls-1" x="13" y="13" width="38" height="38"/>
    </clipPath>
  </defs>
  <g class="cls-4">
    <g>
      <path class="cls-2" d="M42.09,14.48h-20.19c-4.1,0-7.42,3.32-7.42,7.42v20.19c0,4.1,3.32,7.42,7.42,7.42h20.19c4.1,0,7.42-3.32,7.42-7.42v-20.19c0-4.1-3.32-7.42-7.42-7.42Z"/>
      <path class="cls-3" d="M42.46,19.68c-1.02,0-1.86.83-1.86,1.86s.83,1.86,1.86,1.86,1.86-.83,1.86-1.86-.83-1.86-1.86-1.86"/>
      <path class="cls-2" d="M32,23.84h0c-4.51,0-8.16,3.66-8.16,8.16s3.66,8.16,8.16,8.16,8.16-3.66,8.16-8.16-3.66-8.16-8.16-8.16Z"/>
    </g>
  </g>
</svg>