<?xml version="1.0" encoding="UTF-8"?>
<svg id="Layer_3" data-name="Layer 3" xmlns="http://www.w3.org/2000/svg" viewBox="0 0 64 64">
  <defs>
    <style>
      .cls-1 {
        fill: none;
        stroke: #000;
        stroke-linecap: round;
        stroke-linejoin: round;
        stroke-width: 1.5px;
      }
    </style>
  </defs>
  <path class="cls-1" d="M29.716,19.261c-.899-.481-1.912-.745-3.003-.745-3.54,0-6.41,2.87-6.41,6.41,0,.358.031.709.087,1.051-1.921.978-3.238,2.972-3.238,5.276,0,.873.192,1.736.566,2.526-2.054.838-3.503,2.855-3.503,5.211,0,3.108,2.519,5.627,5.627,5.627h8.443"/>
  <path class="cls-1" d="M45.896,32.586c.402-.85.628-1.801.628-2.804,0-2.557-1.461-4.77-3.594-5.856.064-.386.096-.776.097-1.166,0-3.929-3.185-7.114-7.114-7.114s-7.114,3.185-7.114,7.114c0,.397.034.787.097,1.166-2.132,1.085-3.594,3.299-3.594,5.856,0,1.003.226,1.953.628,2.804-2.28.931-3.888,3.169-3.888,5.784,0,3.449,2.796,6.246,6.246,6.246h15.252c3.449,0,6.246-2.796,6.246-6.246,0-2.615-1.608-4.853-3.888-5.784Z"/>
  <path class="cls-1" d="M35.912,26.13v25.516"/>
  <path class="cls-1" d="M26.713,44.615v7.03"/>
  <path class="cls-1" d="M31.55,28.501l4.341,4.341"/>
  <path class="cls-1" d="M40.232,28.501l-4.341,4.341"/>
  <path class="cls-1" d="M30.313,34.691l5.578,5.578"/>
  <path class="cls-1" d="M41.468,34.691l-5.578,5.578"/>
  <path class="cls-1" d="M12.879,51.646h38.242"/>
</svg>