<?xml version="1.0" encoding="UTF-8"?>
<svg id="Layer_3" data-name="Layer 3" xmlns="http://www.w3.org/2000/svg" xmlns:xlink="http://www.w3.org/1999/xlink" viewBox="0 0 64 64">
  <defs>
    <style>
      .cls-1 {
        clip-path: url(#clippath);
      }

      .cls-2 {
        stroke-width: 0px;
      }

      .cls-2, .cls-3 {
        fill: none;
      }

      .cls-3 {
        stroke: #000;
        stroke-linecap: round;
        stroke-linejoin: round;
        stroke-width: 2px;
      }
    </style>
    <clipPath id="clippath">
      <rect class="cls-2" x="17" y="17" width="30" height="30"/>
    </clipPath>
  </defs>
  <g class="cls-1">
    <g>
      <path class="cls-3" d="M18.66,24.99c-.49-.33-.78-.87-.78-1.46h0c0-1.04.84-1.88,1.88-1.88h24.48c1.04,0,1.88.84,1.88,1.88h0c0,.59-.29,1.14-.78,1.46-2.39,1.59-9.59,6.39-12.29,8.2-.63.42-1.46.42-2.09,0-2.71-1.8-9.9-6.6-12.29-8.2Z"/>
      <path class="cls-3" d="M17.88,23.53v16.95c0,.5.2.98.55,1.33.35.35.83.55,1.33.55h24.48c.5,0,.98-.2,1.33-.55.35-.35.55-.83.55-1.33v-16.95"/>
    </g>
  </g>
</svg>