<?xml version="1.0" encoding="utf-8"?>
<!-- Generator: Adobe Illustrator 28.4.1, SVG Export Plug-In . SVG Version: 6.00 Build 0)  -->
<svg version="1.1" id="Layer_3" xmlns="http://www.w3.org/2000/svg" xmlns:xlink="http://www.w3.org/1999/xlink" x="0px" y="0px"
	 viewBox="0 0 64 64" style="enable-background:new 0 0 64 64;" xml:space="preserve">
<style type="text/css">
	.st0{fill:none;stroke:#000000;stroke-width:2;stroke-miterlimit:10;}
</style>
<path class="st0" d="M33.2,15c8.2,1.2,14.6,7.7,15.8,15.9c-7.2-0.2-11.1-1.3-13.2-3.7C33.8,24.8,33.3,20.8,33.2,15z M30.8,15
	c-0.1,5.8-0.6,9.8-2.7,12.1c-2.1,2.4-6,3.5-13.1,3.7C16.2,22.7,22.6,16.3,30.8,15z M49,33.1c-1.2,8.2-7.6,14.6-15.8,15.9
	c0.1-5.8,0.6-9.8,2.7-12.2C37.9,34.5,41.8,33.3,49,33.1z M15,33.1c7.2,0.2,11.1,1.3,13.1,3.7c2,2.3,2.5,6.3,2.7,12.1
	C22.6,47.7,16.2,41.3,15,33.1z"/>
</svg>
