<?xml version="1.0" encoding="UTF-8"?>
<svg id="Layer_3" data-name="Layer 3" xmlns="http://www.w3.org/2000/svg" viewBox="0 0 64 64">
  <defs>
    <style>
      .cls-1 {
        fill: none;
        stroke: #000;
        stroke-linecap: round;
        stroke-linejoin: round;
        stroke-width: 1.5px;
      }
    </style>
  </defs>
  <path class="cls-1" d="M22.299,37.564c-1.067.765-2.375,1.215-3.788,1.215h0c-3.596,0-6.511-2.915-6.511-6.511v-13.403c0-3.596,2.915-6.511,6.511-6.511h0c3.596,0,6.511,2.915,6.511,6.511v3.091M18.511,20.936v30.626M15.669,30.066l2.842,2.845M15.669,23.35l2.842,2.845"/>
  <ellipse class="cls-1" cx="27.08" cy="30.435" rx="8.569" ry="8.578"/>
  <path class="cls-1" d="M27.08,28.095v23.467M23.79,30.899l3.289,3.293M30.369,30.899l-3.289,3.293M36.02,44.253h14.681v4.257h-14.681v-4.257ZM36.02,37.964h14.681v3.423h-14.681v-3.423ZM38.063,36.267v1.633M48.659,36.267v1.633M38.063,41.451v2.634M48.659,41.451v2.634M38.063,48.595v2.968M48.659,48.595v2.968M12,51.646h40"/>
</svg>