<?xml version="1.0" encoding="UTF-8"?>
<svg id="Layer_3" data-name="Layer 3" xmlns="http://www.w3.org/2000/svg" viewBox="0 0 64 64">
  <defs>
    <style>
      .cls-1 {
        fill: none;
        stroke: #000;
        stroke-linecap: round;
        stroke-linejoin: round;
        stroke-width: 2px;
      }
    </style>
  </defs>
  <path class="cls-1" d="M26.98,45.7c1.25-3.02,2.03-6.37,2.43-7.87,5.71,7.41,21.06-1.54,17.65-14.8-2.06-7.99-10.08-11.07-18.29-9.72-13.6,2.24-15.08,16.98-8.54,21.27l.1-.37c.3-1.1.68-2.53.84-3.33-.62-2.15-.71-4.24-.27-6.25,1.51-9.97,23.13-9.83,20.53,4.05-.4,2.14-1.13,4.17-2.6,5.88-3.51,4.1-9.08,1.78-7.87-2.25.63-2.12,1.81-5.41,1.94-7.64.22-3.82-5.24-4.56-6.96-.23-.76,1.93-.64,3.86.05,5.79.6,1.69-5.2,15.76-2.61,20.77,1.49-.97,2.68-3.04,3.62-5.3Z"/>
</svg>